<?xml version="1.0" encoding="utf-8"?>
<!-- Generator: Adobe Illustrator 20.1.0, SVG Export Plug-In . SVG Version: 6.00 Build 0)  -->
<svg version="1.1" id="Vrstva_1" xmlns="http://www.w3.org/2000/svg" xmlns:xlink="http://www.w3.org/1999/xlink" x="0px" y="0px"
	 viewBox="0 0 800 626.4" style="enable-background:new 0 0 800 626.4;" xml:space="preserve">
<style type="text/css">
	.st0{fill-rule:evenodd;clip-rule:evenodd;fill:#FF6000;}
	.st1{fill-rule:evenodd;clip-rule:evenodd;}
</style>
<path class="st0" d="M632.1,237.1L546,187.4l-86.1,49.7v49.9v50.1l86.1,49.7l86.1-49.7V237.1z M567.1,5.8l211.7,122.2
	c13.4,7.8,21.1,21.1,21.1,36.6v244.5c0,15.5-7.7,28.8-21.1,36.6L567.1,568c-13.5,7.8-28.8,7.8-42.3,0L460,530.5l-0.1-107.8
	l66.5,38.4c12.5,7.2,26.8,7.2,39.2,0l121.2-70c12.5-7.2,19.6-19.6,19.6-34V217.2c0-14.4-7.1-26.8-19.6-34l-121.2-70
	c-12.5-7.2-26.8-7.2-39.2,0l-121.2,70c-12.5,7.2-19.6,19.6-19.6,34v69.9v71.4v21.3l0.1,107.8l-72.4-41.8
	c-13.4-7.8-21.1-21.1-21.1-36.6V164.7c0-15.5,7.7-28.8,21.1-36.6L524.9,5.8C538.3-1.9,553.7-1.9,567.1,5.8"/>
<path class="st1" d="M400.5,586.9c-2.2,3.1-2.4,9.3-2.4,12.9c0,3.7,0.3,9.8,2.4,12.9c1.9,2.7,5.2,3.4,8.2,3.4c3.1,0,6.3-0.7,8.1-3.4
	c2.1-3.1,2.4-9.3,2.4-12.9c0-3.7-0.3-9.8-2.4-12.9c-1.8-2.7-5.1-3.4-8.1-3.4C405.7,583.6,402.4,584.3,400.5,586.9 M347.9,588.5v22.7
	c2.3,4.1,5.7,4.9,9.6,4.9c3,0,5.8-0.9,7.6-3.3c2.3-3.1,2.6-9.3,2.6-13c0-3.5-0.2-9.6-2.5-12.5c-1.9-2.4-4.8-3.1-7.8-3.1
	C353.5,584.1,350.2,585.4,347.9,588.5 M298.2,586.9c-2.2,3.1-2.4,9.3-2.4,12.9c0,3.7,0.3,9.8,2.4,12.9c1.9,2.7,5.2,3.4,8.2,3.4
	c3.1,0,6.3-0.7,8.1-3.4c2.1-3.1,2.4-9.3,2.4-12.9c0-3.7-0.3-9.8-2.4-12.9c-1.8-2.7-5.1-3.4-8.1-3.4
	C303.4,583.6,300.1,584.3,298.2,586.9 M246.5,573.1v17.5h9.5c2.3,0,5.4-0.3,7.2-2c1.8-1.6,2.1-4.8,2.1-7.1c0-2.2-0.3-5.1-2-6.7
	c-1.7-1.6-4.7-1.9-6.9-1.9H246.5z M194,586.9c-2.2,3.1-2.4,9.3-2.4,12.9c0,3.7,0.3,9.8,2.4,12.9c1.9,2.7,5.2,3.4,8.2,3.4
	c3.1,0,6.3-0.7,8.1-3.4c2.1-3.1,2.4-9.3,2.4-12.9c0-3.7-0.3-9.8-2.4-12.9c-1.8-2.7-5.1-3.4-8.1-3.4
	C199.2,583.6,195.9,584.3,194,586.9 M114.4,586.9c-2.2,3.1-2.4,9.3-2.4,12.9c0,3.7,0.3,9.8,2.4,12.9c1.9,2.7,5.2,3.4,8.2,3.4
	c3.1,0,6.3-0.7,8.1-3.4c2.1-3.1,2.4-9.3,2.4-12.9c0-3.7-0.3-9.8-2.4-12.9c-1.8-2.7-5.1-3.4-8.1-3.4
	C119.5,583.6,116.2,584.3,114.4,586.9 M12.8,573.1V593h8.6c2.6,0,6.1-0.3,8.2-2.1c2-1.8,2.4-5.3,2.4-7.8c0-2.5-0.4-6-2.3-7.8
	c-2-1.8-5.6-2.2-8.2-2.2H12.8z M449.7,583.7v26.9c0,3.9,2,5.5,5.8,5.5c1.2,0,2.6-0.1,3.8-0.5l0.9-0.3l0.8,9.3l-0.5,0.2
	c-2.4,1.1-5.4,1.4-8,1.4c-4,0-8.1-0.9-11-4c-2.8-3-3.7-7.2-3.7-11.3v-43.8l0.7-0.5l11.2-4.4v11.9H460v9.5H449.7z M431.5,599.9
	c0,6.6-0.9,15.1-5.4,20.3c-4.3,5-11.1,6.3-17.4,6.3c-6.3,0-13.1-1.3-17.5-6.3c-4.6-5.2-5.5-13.6-5.5-20.2c0-6.7,1-15,5.5-20.2
	c4.4-5,11.1-6.4,17.5-6.4c6.3,0,13.1,1.3,17.4,6.4C430.6,584.8,431.5,593.2,431.5,599.9 M347.9,577.4c3.6-3,7.8-4.1,12.5-4.1
	c15.6,0,19.4,12.9,19.4,26.3c0,15.2-5.6,26.4-22,26.6c-11.5-0.1-18.8-5.4-21.7-14.2v-48.7l11.8-4.4V577.4z M329.2,599.9
	c0,6.6-0.9,15.1-5.4,20.3c-4.3,5-11.1,6.3-17.4,6.3c-6.3,0-13.1-1.3-17.5-6.3c-4.6-5.2-5.5-13.6-5.5-20.2c0-6.7,1-15,5.5-20.2
	c4.4-5,11.1-6.4,17.5-6.4c6.3,0,13.1,1.3,17.4,6.4C328.3,584.8,329.2,593.2,329.2,599.9 M267.8,598.4l16.1,26.8h-16.4l-12.2-24.3
	h-8.8v24.3h-12.8v-63.3h22.6c5.7,0,12.3,0.9,16.7,4.7c4.3,3.7,5.5,9.2,5.5,14.6c0,4-0.8,8.1-3,11.5
	C273.6,595.6,271,597.4,267.8,598.4 M225,599.9c0,6.6-0.9,15.1-5.4,20.3c-4.3,5-11.1,6.3-17.4,6.3c-6.3,0-13.1-1.3-17.5-6.3
	c-4.6-5.2-5.5-13.6-5.5-20.2c0-6.7,1-15,5.5-20.2c4.4-5,11.1-6.4,17.5-6.4c6.3,0,13.1,1.3,17.4,6.4C224.1,584.8,225,593.2,225,599.9
	 M164.2,583.7v26.9c0,3.9,2,5.5,5.8,5.5c1.2,0,2.6-0.1,3.8-0.5l0.9-0.3l0.8,9.3l-0.5,0.2c-2.5,1.1-5.4,1.4-8.1,1.4
	c-4,0-8.1-0.9-11-4c-2.8-3-3.7-7.2-3.7-11.3v-43.8v-0.8l11.9-4.1v11.9h10.4v9.5H164.2z M145.4,599.9c0,6.6-0.9,15.1-5.4,20.3
	c-4.3,5-11.1,6.3-17.4,6.3c-6.3,0-13.1-1.3-17.5-6.3c-4.6-5.2-5.5-13.6-5.5-20.2c0-6.7,1-15,5.5-20.2c4.4-5,11.1-6.4,17.5-6.4
	c6.3,0,13.1,1.3,17.4,6.4C144.5,584.8,145.4,593.2,145.4,599.9 M62.8,588.4v36.9H50.9v-62l11.9-4.4v13.2l-0.1,5.4
	c3.6-2.9,7.9-4.2,12.6-4.2c4.9,0,9.5,1.4,12.8,5.1c3.5,3.8,4.6,9,4.6,14v32.9h-12v-32.9c0-5.7-3.1-8.1-8.7-8.1
	c-1.9,0-3.8,0.4-5.6,1.2C65,586.1,63.7,587,62.8,588.4 M12.8,603.7v21.5H0v-63.3h21.4c6,0,13.4,0.9,18,5.1
	c4.5,4.1,5.6,10.3,5.6,16.1c0,5.7-1.3,11.4-5.7,15.4c-4.7,4.2-11.9,5.2-17.9,5.2H12.8z"/>
</svg>
